<svg xmlns="http://www.w3.org/2000/svg" viewBox="0 0 1254 1254" preserveAspectRatio="xMidYMid meet">
  <path d="M794 287L730 287L729 280Q702 267 687 263Q672 259 661 257.5Q650 256 626.5 256Q603 256 585.5 259Q568 262 560 264.5Q552 267 542 272Q532 277 531 278L530 279L533 285L532 287L467 287L466 284Q472 277 474 276Q476 275 489.5 274.5L503 274Q510 267 517 263.5Q524 260 524.5 259L525 258Q557 246 577 242.5Q597 239 620 238.5Q643 238 663 240.5Q683 243 696.5 246.5Q710 250 725 256.5L740 263Q741 265 747.5 268.5Q754 272 755 273.5L756 275Q785 275 788 277Q791 279 792.5 283ZM241 287L240 319Q217 319 212.5 320L208 321Q201 330 201 343Q201 356 200 357.5L199 359L166 359Q165 315 167.5 308.5Q170 302 174.5 297Q179 292 184.5 289Q190 286 194 285Q198 284 214 284Q230 284 234.5 284.5L239 285ZM1089 359L1055 359Q1053 329 1050 325.5Q1047 322 1045 321Q1043 320 1028.5 319.5L1014 319L1014 286Q1017 284 1036.5 284Q1056 284 1061.5 285.5Q1067 287 1070.5 289Q1074 291 1079 296.5Q1084 302 1086.5 308Q1089 314 1089 336.5ZM1085 932L1049 933L1049 935L1045 937Q1045 462 1043 459Q1041 456 1039 455Q1037 454 1031.5 453.5Q1026 453 625 453Q224 453 219 455Q214 457 212.5 459.5Q211 462 211 709Q211 956 214 960Q217 964 219.5 965Q222 966 627.5 966Q1033 966 1036 965L1039 964L1042 959L1045 958Q1044 963 1041 966.5Q1038 970 1033.5 972Q1029 974 1022 974.5Q1015 975 1013.5 976L1012 977L1011 1011L1009 1013L243 1013L242 979L238 975Q221 973 218 971.5Q215 970 212 967Q209 964 207.5 960.5Q206 957 205 945.5L204 934L172 933L170 931L171 369L211 368Q214 362 214.5 355.5Q215 349 217 345Q219 341 224 337Q229 333 235.5 332Q242 331 245.5 329.5L249 328L251 296L1004 296L1005 328Q1008 330 1015.5 331Q1023 332 1026 333.5Q1029 335 1032.5 338.5Q1036 342 1038.5 347.5Q1041 353 1041.5 359.5L1042 366L1044 368L1085 370ZM907 365L870 365L870 416L907 416ZM404.5 403Q407 408 410 410.5Q413 413 419 415Q425 417 430 416.5Q435 416 440 413.5Q445 411 448 407.5Q451 404 452.5 400Q454 396 454 391Q454 386 452.5 381.5Q451 377 447.5 373Q444 369 440 367Q436 365 428 365Q420 365 415 367.5Q410 370 407.5 373Q405 376 403 382.5Q401 389 401.5 393.5Q402 398 404.5 403ZM368.5 388Q368 383 365 377.5Q362 372 357.5 369Q353 366 349 365Q345 364 339.5 364.5Q334 365 330 367Q326 369 323 372Q320 375 318 380Q316 385 316 390.5Q316 396 318 401Q320 406 324.5 410Q329 414 334.5 415.5Q340 417 345 416.5Q350 416 353.5 414.5Q357 413 361 409Q365 405 367 399Q369 393 368.5 388ZM573.5 400Q575 404 578.5 408Q582 412 589 414.5Q596 417 600.5 416.5Q605 416 609 414.5Q613 413 616.5 410Q620 407 622 402.5Q624 398 624 390.5Q624 383 622 378.5Q620 374 616.5 371Q613 368 607 366Q601 364 595.5 364.5Q590 365 586 367Q582 369 578.5 373Q575 377 573.5 381Q572 385 572 390.5Q572 396 573.5 400ZM710 390.5Q710 385 708 380Q706 375 703 372Q700 369 696 367Q692 365 687 364.5Q682 364 675.5 366Q669 368 665 372Q661 376 659.5 379.5Q658 383 658 390Q658 397 659.5 401Q661 405 665 409Q669 413 672.5 414.5Q676 416 680.5 416.5Q685 417 691 415.5Q697 414 701.5 410Q706 406 708 401Q710 396 710 390.5ZM539 391Q539 385 537 380Q535 375 532 372Q529 369 525 367Q521 365 516 364.5Q511 364 504.5 366Q498 368 494 372Q490 376 488.5 379.5Q487 383 487 390.5Q487 398 488.5 401.5Q490 405 494 409Q498 413 501.5 414.5Q505 416 512.5 416Q520 416 523 415Q526 414 530.5 410Q535 406 537 401.5Q539 397 539 391ZM936 416L974 416L973 364L936 365ZM165 942L197 943Q197 965 198.5 970Q200 975 202 977Q204 979 207.5 980.5Q211 982 222 982.5L233 983L232 1015Q190 1014 185 1011.5Q180 1009 175 1004Q170 999 167.5 992.5Q165 986 165 964ZM1089 942Q1089 986 1086 993Q1083 1000 1078.5 1004.5Q1074 1009 1068.5 1011.5Q1063 1014 1042 1014.5L1021 1015L1019 1013Q1019 985 1020 983.5L1021 982Q1041 982 1046 979Q1051 976 1052.5 973.5Q1054 971 1054.5 957L1055 943Z" fill="currentColor" fill-rule="evenodd" clip-rule="evenodd"/>
</svg>
